<?xml version="1.0" encoding="utf-8"?>
<!-- Generator: Adobe Illustrator 19.1.0, SVG Export Plug-In . SVG Version: 6.00 Build 0)  -->
<svg version="1.1" id="Layer_1" xmlns="http://www.w3.org/2000/svg" xmlns:xlink="http://www.w3.org/1999/xlink" x="0px" y="0px"
	 viewBox="0 0 2501 429.9" style="enable-background:new 0 0 2501 429.9;" xml:space="preserve">
<style type="text/css">
	.st0{fill:#FFFFFF;}
</style>
<g>
	<path class="st0" d="M649.6,17.5c1-0.1,1.7-0.3,2.3-0.3c40.5,0.1,81-0.5,121.4,0.6c30,0.8,56.3,11.7,75.8,35.7
		c16,19.7,22.5,43,22.6,67.9c0.3,63.8,0.3,127.6,0,191.4c-0.1,23.5-5.8,45.6-20.6,64.5c-17.9,22.6-42.4,32.6-70.3,35.3
		c-10.9,1.1-22,1-32.9,1.1c-30.8,0.1-61.6,0-92.5,0c-1.8,0-3.6,0-5.9,0C649.6,281.5,649.6,149.7,649.6,17.5z M723.4,81.8
		c0,89.1,0,178.3,0,267.5c14.5,0,28.7,0.9,42.7-0.2c17.1-1.5,27-11.6,30-28.6c0.9-5.2,1.3-10.6,1.3-15.9c0.1-59.3,0.1-118.6,0-177.9
		c0-3.8-0.1-7.7-0.5-11.5c-2-19.1-11.6-31.4-28.3-33.1C753.8,80.7,738.7,81.8,723.4,81.8z"/>
	<path class="st0" d="M2101.4,412.5c-24.9,0-49.1,0-73.7,0c0-132,0-263.7,0-396.1c1.9,0,3.7,0,5.5,0c38.8,0,77.7-0.4,116.5,0.2
		c11.4,0.2,23,1.7,33.9,4.9c32.2,9.3,53.2,34.4,55.3,67.8c1.6,25.6,1.4,51.3,0.4,76.9c-1,25.7-15.1,43-39.1,52.2
		c-1.1,0.4-2.1,0.8-3.7,1.5c1.5,0.6,2.5,1.1,3.6,1.5c25.6,9.4,40.9,31.1,41,58.6c0.1,24,0.1,48,0,72c0,14.6,3,28.1,12.8,39.5
		c0.8,0.9,1.3,2.3,1.4,3.6c0.1,6.5,0.1,13,0.1,20.2c-2.1,0-3.9,0-5.6,0c-12.8,0-25.7,0-38.5,0c-18,0-29.9-8.3-36.1-25.3
		c-4-11-5-22.4-5-33.9c0-24.3,0.1-48.7-0.1-73c0-4.9-0.7-10.1-2.2-14.7c-3.6-11.1-11.3-18.5-23.1-19.2c-14.2-0.8-28.6-0.2-43.4-0.2
		C2101.4,303.5,2101.4,357.9,2101.4,412.5z M2101.6,193.5c14.6,0,28.6,0.5,42.5-0.2c12.2-0.6,19.9-7.8,22.5-19.7
		c0.7-3.2,1.2-6.6,1.2-9.9c0.1-19.6,0.2-39.3,0-58.9c-0.2-18.9-9-27.4-27.7-27.4c-11.2,0-22.3,0-33.5,0c-1.6,0-3.2,0.2-5,0.3
		C2101.6,116.3,2101.6,154.7,2101.6,193.5z"/>
	<path class="st0" d="M2501,412.8c-2.1,0-3.7,0-5.3,0c-22.3,0-44.7-0.1-67,0.1c-3.8,0-5.4-1-6.7-4.8
		c-16.8-50.6-33.8-101.1-50.8-151.6c-0.6-1.8-1.3-3.6-2.3-6.3c-8.5,17.5-16.7,34.1-24.7,50.7c-0.8,1.7-0.8,3.9-0.8,5.8
		c0,33.2,0,66.3,0,99.5c0,2,0,3.9,0,6.2c-24.7,0-49,0-73.6,0c0-131.9,0-263.6,0-395.7c24.3,0,48.5,0,73.4,0c0,59.4,0,118.9,0,178.3
		c0.3,0.1,0.7,0.1,1,0.2c0.6-1.3,1.3-2.5,1.9-3.8c24.9-56.7,49.9-113.4,74.7-170.2c1.7-3.8,3.6-5.1,7.7-5
		c21.2,0.2,42.3,0.1,63.5,0.1c1.6,0,3.2,0,5.4,0c-0.8,2-1.4,3.4-2,4.7c-24.5,52.5-48.9,105.1-73.5,157.6c-1.7,3.6-1.8,6.7-0.5,10.4
		c26,72.6,51.8,145.2,77.7,217.9C2499.7,408.6,2500.2,410.4,2501,412.8z"/>
	<path class="st0" d="M1774.6,412.3c26.6-132,53.1-263.7,79.6-395.6c27.7,0,55.1,0,82.9,0c26.3,131.8,52.6,263.6,79,395.8
		c-2,0.1-3.6,0.3-5.2,0.3c-21.5,0-43-0.1-64.5,0.1c-4.1,0-5.7-1-6.4-5.3c-3.5-22.5-7.6-45-11.1-67.5c-0.7-4.3-2.3-5.2-6.4-5.2
		c-19.8,0.2-39.7,0.2-59.5,0c-3.8,0-5.5,0.9-6.2,5c-4,23-8.4,45.9-12.5,68.8c-0.5,2.6-1,4.2-4.2,4.2c-21.2-0.1-42.3-0.1-63.5-0.1
		C1776.3,412.7,1775.8,412.6,1774.6,412.3z M1895.2,127c-0.3,0-0.6-0.1-0.9-0.1c-8.7,49.6-17.4,99.3-26.1,149.3
		c16.9,0,33.3,0,50.3,0C1910.7,226.3,1902.9,176.6,1895.2,127z"/>
	<path class="st0" d="M0.2,293c22.7,0,44.9,0,67.8,0c0,8-0.4,15.8,0.1,23.5c0.4,6.8,1.1,13.7,3,20.1c3.8,12.7,12.6,21.1,25.7,23
		c8.1,1.2,16.7,1.2,24.7-0.4c14.4-2.7,23.4-14.2,25.5-29.8c2.5-19.5-3.4-36.5-15.6-51.5c-12.5-15.4-28.1-27.5-43.9-39.1
		c-22.6-16.6-44.3-34.3-61-57.2C6.1,153.7-1,122.8,6.4,88.9C16.1,44.1,50.2,14.1,96,9.6c18.7-1.8,37-0.7,54.8,5.4
		c37.6,12.9,62.6,45.9,65,86.5c0.7,11.3,0.1,22.6,0.1,34.4c-22.2,0-44.4,0-67.1,0c0-8.2,0.6-16.2-0.2-24.1c-0.7-7.4-1.8-15-4.6-21.8
		c-6.5-15.6-23.1-22.7-41.4-19c-16,3.2-26,15.3-26.8,32.2c-0.9,18,4.4,34.1,17.3,46.3c13.7,13.1,28.5,25,43.5,36.7
		c18.8,14.6,37.6,29.3,53,47.7c26.7,31.7,36.1,67.8,26.7,108.3c-10.3,44.4-45.3,74.7-90.7,79.4c-17.4,1.8-34.6,0.9-51.6-3.5
		c-44.5-11.6-71.4-44.6-73.7-90.7C-0.3,316.2,0.2,304.8,0.2,293z"/>
	<path class="st0" d="M1344.5,292.1c22.7,0,44.9,0,67.8,0c0,1.8,0,3.4,0,5c0,7.8-0.2,15.7,0.2,23.5c1.3,25.8,15.6,39.9,40.3,39.9
		c24.4,0,38.5-13.7,39.1-38.3c0.4-15.8-4.7-29.8-14.2-42.3c-13-17.1-29.9-29.9-46.9-42.4c-20-14.8-39.3-30.4-55-49.9
		c-18.9-23.6-29.5-49.9-27.7-80.7c3.2-55.5,41.9-94.8,97.5-98.3c18.3-1.2,36.4,0.3,53.5,7.4c38.2,15.8,57.7,45.3,61,85.8
		c0.9,11,0.1,22.2,0.1,33.7c-22.3,0-44.4,0-67.1,0c0-7.9,0.5-15.7-0.1-23.5c-0.6-7.1-1.4-14.4-3.9-20.9
		c-6.1-16.5-22.6-24.1-41.9-20.6c-16,2.9-26.3,15.5-27.1,32.5c-1,21.3,7.6,38.4,23,52.1c12.8,11.4,26.4,21.9,40,32.3
		c19.5,14.9,38.5,30.3,53.8,49.7c24.3,30.7,32.4,65.3,24,103.4c-10.9,49.1-51.4,80.7-103.3,81.3c-16.3,0.2-32.3-1.5-47.8-6.8
		c-39.1-13.2-62.7-44.8-65.2-87.6C1343.9,315.8,1344.5,304.2,1344.5,292.1z"/>
	<path class="st0" d="M1654.4,261.2c0,50.8,0,100.9,0,151.3c-24.7,0-49,0-73.6,0c0-131.9,0-263.6,0-396c1.8,0,3.6,0,5.4,0
		c39,0,78,0,117,0c15,0,29.6,2.2,43.3,8.4c27.1,12.3,40.6,34.4,44.7,63c0.8,5.9,1.1,12,1.1,17.9c0.1,23,0.2,46,0,69
		c-0.3,23.7-6.2,45.5-23.6,62.9c-14.4,14.3-32.4,21.2-52.1,22.5c-18.3,1.2-36.6,0.7-55,0.9C1659.5,261.2,1657.3,261.2,1654.4,261.2z
		 M1654.6,203.4c1,0.2,1.8,0.4,2.6,0.5c13.3,0,26.6,0.3,39.9-0.1c14.3-0.5,22.3-7.8,23.2-22.3c1-15.8,0.6-31.6,0.7-47.4
		c0-11.5,0.3-23-0.6-34.4c-1.2-14.9-9.7-22.2-24.8-22.3c-10.3-0.1-20.6,0-31,0c-3.3,0-6.5,0-9.9,0
		C1654.6,119.8,1654.6,161.5,1654.6,203.4z"/>
	<path class="st0" d="M390.1,237.6c-26.5,0-52.6,0-79,0c0,36.6,0,72.9,0,109.6c38.1,0,76.1,0,114.6,0c0,22.3,0,44,0,66.1
		c-62.6,0-125.3,0-188.5,0c0-131.8,0-263.7,0-395.8c62.8,0,125.5,0,188.6,0c0,21,0,41.9,0,63.3c-38.2,0-76.3,0-114.7,0
		c0,32.8,0,65,0,97.8c26.1,0,52.3,0,78.9,0C390.1,198.4,390.1,217.6,390.1,237.6z"/>
	<path class="st0" d="M517.1,347.5c38.3,0,76.4,0,114.7,0c0,22.2,0,43.8,0,65.7c-62.8,0-125.5,0-188.6,0c0-131.8,0-263.6,0-395.8
		c62.8,0,125.5,0,188.6,0c0,21,0,41.9,0,63.4c-38.2,0-76.3,0-114.7,0c0,32.8,0,65,0,97.9c26.2,0,52.4,0,79,0c0,19.8,0,39,0,58.7
		c-26.4,0-52.5,0-79,0C517.1,274.3,517.1,310.6,517.1,347.5z"/>
	<path class="st0" d="M979.4,192.8c-8.2-15.7-14.8-31.2-18.3-48c-9.8-47,10.2-96.7,51.2-121.7c44.5-27.2,92.1-30.6,139.7-9.2
		c48.1,21.6,69.5,78.7,49,125.4c-8.9,20.3-23.6,36.1-41.7,48.1c-15.6,10.4-32.5,18.8-48.8,28.1c-1.4,0.8-2.9,1.4-4.9,2.4
		c16.5,23.2,34,45,54.2,65.4c23-27.6,39.1-58.3,50.4-92.4c23.7,8.4,47,16.6,70.2,24.8c-2.5,25.6-24.6,67.8-62,118.8
		c11,8.2,23,13.8,36.8,14.9c14.1,1.2,26.7-2.8,37.4-12.9c11.7,20.7,23,40.8,34.6,61.3c-14.3,14-30.5,24.2-50,28.8
		c-28.5,6.7-56.1,2.8-82.5-8.8c-13.7-6-26.5-13.8-39.6-21.2c-3.1-1.8-5.2-2.1-8.4-0.3c-39.8,23.1-82.6,35-128.9,33.1
		c-32.6-1.4-63.2-9.7-89.7-29.5c-47.5-35.5-58.3-97.8-25.5-147.2c17.5-26.4,42.3-43.9,70.6-57.1C975,194.8,976.9,194,979.4,192.8z
		 M1267.5,223.1c-17-6-33.6-11.9-50.4-17.8c-13.3,35.1-31.2,66.7-56.8,94.2c-27.4-26.1-50.5-55.3-71.6-86.3c0.9-0.7,1.1-0.9,1.4-1
		c2.9-1.3,5.8-2.5,8.7-3.7c25-10.9,49-23.5,69.1-42.4c11.1-10.4,20-22.3,25.1-36.8c14.4-41.3-6.3-88.8-48.3-106.5
		c-42-17.7-83.9-14.8-123.5,7.9c-37.4,21.5-56.9,64.4-50.1,106.9c3.1,19.7,11.2,37.6,20.9,54.8c1.1,2,2.2,3.9,3.2,5.8
		c-0.7,0.6-1,0.8-1.3,0.9c-1.8,0.8-3.7,1.5-5.6,2.2c-23.3,9.3-44.5,21.8-62.2,39.8c-50.6,51.3-38.5,127.5,25.5,160.5
		c22.4,11.5,46.4,16.4,71.3,16.9c45.1,0.7,86.4-12.1,124.6-35.7c2.8-1.7,4.5-1.6,7.4,0.1c12.5,7.6,24.8,15.7,38,22
		c26,12.4,53.4,17.6,82.1,10.6c14.3-3.5,26.9-10.3,38-20.2c-8-14.2-15.9-28.1-23.7-42c-33.5,15.5-61.1,4-86.2-16.3
		c12.7-18.2,25.7-35.7,37.4-54C1252.4,264.8,1261.5,244.8,1267.5,223.1z"/>
	<path class="st0" d="M1268.7,111.2c5.9-16.6,11.6-32.7,17.3-48.7c0.3,0.1,0.7,0.1,1,0.2c0.9,16.7,1.8,33.3,2.7,50.8
		c15.7-5.4,30.9-10.6,46-15.8c0.1,0.2,0.3,0.5,0.4,0.7c-11.8,10.3-23.7,20.6-36,31.4c14.2,9.9,27.9,19.5,41.6,29
		c-0.1,0.3-0.2,0.5-0.3,0.8c-17-3.6-34-7.1-51.9-10.9c2.1,16.9,4.2,33.4,6.3,49.8c-0.3,0.2-0.6,0.3-0.9,0.5
		c-7.6-13.5-15.3-27.1-23.2-41.2c-12.5,11.7-24.6,23.1-36.7,34.4c-0.3-0.1-0.5-0.3-0.8-0.4c6.2-15.6,12.4-31.2,18.8-47.6
		c-15.6-2.3-30.8-4.5-46-6.7c-0.1-0.3-0.2-0.7-0.2-1c14.5-4.2,28.9-8.4,44.1-12.8c-8.5-14.5-16.7-28.6-24.9-42.6
		c0.3-0.2,0.5-0.5,0.8-0.7C1240.6,90.6,1254.5,100.8,1268.7,111.2z"/>
	<path class="st0" d="M1105.6,341.5c-19.2,14.4-41.1,21.1-65.2,19.6c-9.5-0.6-19.3-2.3-28.3-5.4c-34.1-11.8-47.1-48.1-28.8-79.3
		c8.5-14.5,21.3-24,36.1-31.2c3-1.5,3.7,0.6,5,2.3c13.4,17,26.3,34.4,40.4,50.8C1077.6,313.1,1091.7,326.8,1105.6,341.5z
		 M1017.3,259.2c-10.5,4.5-22.6,17-27.5,29c-9.4,23.4-0.1,46.4,23.2,56.1c15,6.2,30.7,7.3,46.6,4.8c9.9-1.6,19.4-4.6,27.1-8.9
		C1063.6,313.2,1040.6,286.3,1017.3,259.2z"/>
	<path class="st0" d="M1091,68.9c31.1,0.6,49.6,28,38,56.9c-4.8,12.1-13.5,21.2-23.6,29.1c-12.2,9.5-25.8,16.4-40.1,22.1
		c-1.1,0.4-3.5,0-4-0.9c-10.8-17.4-19.8-35.5-19.3-56.8c0.6-23.7,13.7-42.3,34.3-48C1081.1,70.1,1086.1,69.7,1091,68.9z M1067,164.3
		c14.3-6.4,27.2-13.6,38.1-23.9c7.3-6.8,13.2-14.6,15.3-24.7c3-14.3-3.9-28.3-16.2-33c-21.1-8-43.5,3.3-49.3,25
		C1049.4,128.5,1057.2,146.3,1067,164.3z"/>
</g>
</svg>
