<?xml version="1.0" encoding="utf-8"?>
<!-- Generator: Adobe Illustrator 19.1.0, SVG Export Plug-In . SVG Version: 6.00 Build 0)  -->
<svg version="1.1" id="Layer_1" xmlns="http://www.w3.org/2000/svg" xmlns:xlink="http://www.w3.org/1999/xlink" x="0px" y="0px"
	 viewBox="0 0 441.6 124.5" style="enable-background:new 0 0 441.6 124.5;" xml:space="preserve">
<style type="text/css">
	.st0{fill:#FFFFFF;}
</style>
<g>
	<path class="st0" d="M144.9,109.5c-3.9,2.7-7.5,6.2-11.8,8c-6,2.6-12.4,5-18.8,5.6c-9.7,1-15.7-4.9-15-14.7
		c0.5-7.6,2.5-15,4.1-22.5c1-4.7,2.5-9.3,3.8-14c0.9-3.2,1.9-7.5-1.8-8.1c-2.5-0.4-7.3,2.4-8.4,4.9C90.3,83.3,81.2,96,70.6,107.5
		c-4.7,5.1-10.1,9.8-16,13.4c-9.7,5.9-17,3.9-21.5-6.5c-4-9.2-6.2-19.3-9.2-28.9c-1.7-5.4-3.1-10.9-5.2-16.1
		c-2.9-6.9-5-7.3-11.2-3.3c-0.7,0.4-1.4,0.9-2.6,1.6c-1.5-1.9-3-3.8-4.8-6.2c7.5-6.2,14.5-12.7,22.1-18.2c9.1-6.6,17.3-3.5,20.1,7.5
		c2.1,8,2.9,16.4,4.6,24.5c1.1,5,2.5,10,4.5,14.7c1.7,4.1,4.5,4.5,7.1,0.8c4.2-6.1,8.5-12.4,11.3-19.2c3.4-8.2-1-12.5-9.7-10.7
		c-0.8,0.2-1.6,0.3-2.4,0.5c1.7-13.3,13.7-23.4,26.6-22.7c9.1,0.5,12.7,4.2,15,15.5c1.4-1.2,2.6-2.2,3.8-3.2
		c3.9-3.1,7.6-6.6,11.9-9.1c8.7-5.2,18.2-0.1,17.9,10c-0.2,8.1-2.1,16.1-3.4,24.1c-0.7,4.6-2.2,9.2-2.2,13.8c0,3.3,0.9,7.5,3,9.8
		c2.8,2.9,6.4,0.3,9.5-1.6c3.4-2.1,5.6-4.7,6-9c0.6-6.5,1.9-12.8,2.6-19.3c0.2-2-0.1-4.1-0.3-7.2c-3.5,1.9-6.1,3.3-9.2,5
		c-1.5-1.6-3.1-3.5-5.3-6c7.9-6.7,15.4-13.7,23.5-19.9c4.1-3.2,9.7-1.8,12.4,3.1c2.3,4.1,3.3,8.8,5.4,15c0.7-1.4,1.2-3,2.2-4.2
		c7.8-8.2,17-13.2,28.6-13.2c10.5,0,15.3,4.2,16.5,14.6c0.1,1,0.2,1.9,0.5,4c2.4-2.3,4.2-4,5.9-5.8c7.2-7.3,15.3-12.8,26.1-12.8
		c11,0,17.2,5.4,16.7,16.4c-0.4,8.7-2.7,17.4-4.1,26.1c-0.6,3.4-1.2,6.9-1.4,10.3c-0.3,4,1.9,5.9,5.9,5.5c3.4-0.3,5.6-1.3,5.5-5.8
		c-0.6-27.1,25.7-53.1,54.1-53.8c2.5-0.1,5-0.1,7.5,0.2c16,1.5,23.3,15.9,14.9,29.8c-5.5,9.1-13.5,15.7-23,20.2
		c-6.6,3.1-13.6,5.1-21.7,8.1c3.2,1.5,5.8,3.6,8.5,3.9c13.3,1.4,25.7-2.4,37.7-7.7c1-0.4,1.6-2.6,1.6-4c0-30.3,29.5-56,59.3-51.5
		c13,2,22,10.6,24.5,23.5c5.3,27.8-13.7,55.8-41.6,60.2c-15.5,2.4-29.3-0.5-38.2-15.7c-4.3,2.2-8.3,4.3-12.4,6.4
		c-12.1,6.1-25,9.2-38.5,9.6c-11.5,0.3-21.8-2.6-28.1-12.7c-6.2,3.4-11.7,7.3-17.8,9.7c-4.5,1.8-9.7,2.2-14.6,2.3
		c-6.9,0.1-11.7-4.1-11.6-11c0.1-7.6,1.5-15.2,2.5-22.7c0.7-4.8,2.2-9.5,2.3-14.2c0.1-2.6-1.3-7-3-7.5c-2.3-0.7-6.5,0.7-8.1,2.6
		C219.4,85,212,101.3,216,121c0.1,0.5,0.1,1,0.2,1.4c-16.2,3.7-27.4-5.3-26.1-21.7c0.6-8.1,2.7-16,4-24.1c0.6-3.7,0.9-7.7-3.5-9.3
		c-4.3-1.6-7,1.2-9.2,4.3c-10.9,15.3-14.1,32.3-10.9,50.7C160.4,124.9,151.1,120.3,144.9,109.5z M416.2,72.7
		c-0.5-5.1,0.5-12-5.8-14.3c-6.1-2.2-11.6,1.6-15.7,6.3c-7,7.9-10.7,17.2-10.7,27.7c0,5.1,1,10.5,6.2,12.6c5.1,2.1,9.7-0.4,13.7-3.8
		c0.8-0.6,1.5-1.4,2.1-2.1C412.3,91.5,415.9,83,416.2,72.7z M306.1,89.4c10.4-4.3,18.9-10.1,23.7-20.1c1-2,0.8-5.8-0.5-7.2
		c-1.2-1.4-5-1.5-7.1-0.8C313.2,64.6,304.9,79.2,306.1,89.4z"/>
	<path class="st0" d="M120.5,27.3c-4.6-0.3-9.1-0.9-11.1-5.5c-1.9-4.6-1.2-9.1,2.2-13c4.4-5.1,9.8-8.3,16.7-8.8
		c4.6-0.3,8.1,1.3,10.5,5.2c2.4,3.8,2.1,7.6-0.1,11.3C134.7,23.6,128.5,27.2,120.5,27.3z"/>
</g>
</svg>
